<svg xmlns="http://www.w3.org/2000/svg" viewBox="0 0 400 300" width="400" height="300"><rect width="400" height="300" fill="white"/><path d="M95.0 100 C35.0 75 35.0 205 95.0 213 C155.0 205 155.0 75 95.0 100 Z" fill="#ed6a5a" stroke="#243746" stroke-width="6" stroke-linecap="round" stroke-linejoin="round"/><path d="M95.0 101 l8 -35" fill="none" stroke="#243746" stroke-width="6" stroke-linecap="round" stroke-linejoin="round"/><ellipse cx="116.0" cy="78" rx="16" ry="7" fill="#81b57a" stroke="#243746" stroke-width="5"/><path d="M200.0 100 C140.0 75 140.0 205 200.0 213 C260.0 205 260.0 75 200.0 100 Z" fill="#ed6a5a" stroke="#243746" stroke-width="6" stroke-linecap="round" stroke-linejoin="round"/><path d="M200.0 101 l8 -35" fill="none" stroke="#243746" stroke-width="6" stroke-linecap="round" stroke-linejoin="round"/><ellipse cx="221.0" cy="78" rx="16" ry="7" fill="#81b57a" stroke="#243746" stroke-width="5"/><path d="M305.0 100 C245.0 75 245.0 205 305.0 213 C365.0 205 365.0 75 305.0 100 Z" fill="#ed6a5a" stroke="#243746" stroke-width="6" stroke-linecap="round" stroke-linejoin="round"/><path d="M305.0 101 l8 -35" fill="none" stroke="#243746" stroke-width="6" stroke-linecap="round" stroke-linejoin="round"/><ellipse cx="326.0" cy="78" rx="16" ry="7" fill="#81b57a" stroke="#243746" stroke-width="5"/></svg>