<svg xmlns="http://www.w3.org/2000/svg" viewBox="0 0 400 300" width="400" height="300"><rect width="400" height="300" fill="white"/><path d="M80 142 C42 138 48 78 100 77 C110 24 192 25 214 69 C270 45 325 89 309 139 Z" fill="#d1dce6" stroke="#243746" stroke-width="6" stroke-linecap="round" stroke-linejoin="round"/><path d="M85 180 h20 M95 170 v20 M88 173 l14 14 M88 187 l14 -14" fill="none" stroke="#709bbc" stroke-width="3" stroke-linecap="round" stroke-linejoin="round"/><path d="M85 240 h20 M95 230 v20 M88 233 l14 14 M88 247 l14 -14" fill="none" stroke="#709bbc" stroke-width="3" stroke-linecap="round" stroke-linejoin="round"/><path d="M150 180 h20 M160 170 v20 M153 173 l14 14 M153 187 l14 -14" fill="none" stroke="#709bbc" stroke-width="3" stroke-linecap="round" stroke-linejoin="round"/><path d="M150 240 h20 M160 230 v20 M153 233 l14 14 M153 247 l14 -14" fill="none" stroke="#709bbc" stroke-width="3" stroke-linecap="round" stroke-linejoin="round"/><path d="M215 180 h20 M225 170 v20 M218 173 l14 14 M218 187 l14 -14" fill="none" stroke="#709bbc" stroke-width="3" stroke-linecap="round" stroke-linejoin="round"/><path d="M215 240 h20 M225 230 v20 M218 233 l14 14 M218 247 l14 -14" fill="none" stroke="#709bbc" stroke-width="3" stroke-linecap="round" stroke-linejoin="round"/><path d="M280 180 h20 M290 170 v20 M283 173 l14 14 M283 187 l14 -14" fill="none" stroke="#709bbc" stroke-width="3" stroke-linecap="round" stroke-linejoin="round"/><path d="M280 240 h20 M290 230 v20 M283 233 l14 14 M283 247 l14 -14" fill="none" stroke="#709bbc" stroke-width="3" stroke-linecap="round" stroke-linejoin="round"/></svg>